<svg width="57" height="57" viewBox="0 0 57 57" fill="none" xmlns="http://www.w3.org/2000/svg">
<circle cx="28.5" cy="28.5" r="27.5" stroke="url(#paint0_linear_24_278)" stroke-width="2"/>
<path d="M43.1256 29.87C43.5162 29.4794 43.5162 28.8463 43.1256 28.4557L36.7617 22.0918C36.3711 21.7013 35.738 21.7013 35.3475 22.0918C34.9569 22.4823 34.9569 23.1155 35.3475 23.506L41.0043 29.1628L35.3475 34.8197C34.9569 35.2102 34.9569 35.8434 35.3475 36.2339C35.738 36.6244 36.3711 36.6244 36.7617 36.2339L43.1256 29.87ZM5.30225 29.1628L5.30225 30.1628L42.4185 30.1628L42.4185 29.1628L42.4185 28.1628L5.30225 28.1628L5.30225 29.1628Z" fill="#AB2323"/>
<defs>
<linearGradient id="paint0_linear_24_278" x1="57" y1="29.1628" x2="26.5116" y2="29.1628" gradientUnits="userSpaceOnUse">
<stop stop-color="#AB2323"/>
<stop offset="1" stop-color="white" stop-opacity="0"/>
</linearGradient>
</defs>
</svg>
